<?xml version="1.0" encoding="utf-8" standalone="no"?>
<!DOCTYPE svg PUBLIC "-//W3C//DTD SVG 1.1//EN"
  "http://www.w3.org/Graphics/SVG/1.1/DTD/svg11.dtd">
<svg xmlns:xlink="http://www.w3.org/1999/xlink" width="532.934703pt" height="331.430391pt" viewBox="0 0 532.934703 331.430391" xmlns="http://www.w3.org/2000/svg" version="1.1">
 <metadata>
  <rdf:RDF xmlns:dc="http://purl.org/dc/elements/1.1/" xmlns:cc="http://creativecommons.org/ns#" xmlns:rdf="http://www.w3.org/1999/02/22-rdf-syntax-ns#">
   <cc:Work>
    <dc:type rdf:resource="http://purl.org/dc/dcmitype/StillImage"/>
    <dc:date>2025-09-29T04:29:22.421792</dc:date>
    <dc:format>image/svg+xml</dc:format>
    <dc:creator>
     <cc:Agent>
      <dc:title>Matplotlib v3.10.6, https://matplotlib.org/</dc:title>
     </cc:Agent>
    </dc:creator>
   </cc:Work>
  </rdf:RDF>
 </metadata>
 <defs>
  <style type="text/css">*{stroke-linejoin: round; stroke-linecap: butt}</style>
 </defs>
 <g id="figure_1">
  <g id="patch_1">
   <path d="M 0 331.430391 
L 532.934703 331.430391 
L 532.934703 0 
L 0 0 
z
" style="fill: #ffffff"/>
  </g>
  <g id="axes_1">
   <g id="patch_2">
    <path d="M 63.386703 287.277187 
L 525.734703 287.277187 
L 525.734703 22.809187 
L 63.386703 22.809187 
z
" style="fill: #ffffff"/>
   </g>
   <g id="matplotlib.axis_1">
    <g id="xtick_1">
     <g id="line2d_1">
      <path d="M 154.455249 287.277187 
L 154.455249 22.809187 
" clip-path="url(#pe72e78e23b)" style="fill: none; stroke: #cccccc; stroke-linecap: round"/>
     </g>
     <g id="text_1">
      <!-- 0.2 -->
      <g style="fill: #262626" transform="translate(146.045749 305.438141) scale(0.121 -0.121)">
       <defs>
        <path id="ArialMT-30" d="M 266 2259 
Q 266 3072 433 3567 
Q 600 4063 929 4331 
Q 1259 4600 1759 4600 
Q 2128 4600 2406 4451 
Q 2684 4303 2865 4023 
Q 3047 3744 3150 3342 
Q 3253 2941 3253 2259 
Q 3253 1453 3087 958 
Q 2922 463 2592 192 
Q 2263 -78 1759 -78 
Q 1097 -78 719 397 
Q 266 969 266 2259 
z
M 844 2259 
Q 844 1131 1108 757 
Q 1372 384 1759 384 
Q 2147 384 2411 759 
Q 2675 1134 2675 2259 
Q 2675 3391 2411 3762 
Q 2147 4134 1753 4134 
Q 1366 4134 1134 3806 
Q 844 3388 844 2259 
z
" transform="scale(0.015625)"/>
        <path id="ArialMT-2e" d="M 581 0 
L 581 641 
L 1222 641 
L 1222 0 
L 581 0 
z
" transform="scale(0.015625)"/>
        <path id="ArialMT-32" d="M 3222 541 
L 3222 0 
L 194 0 
Q 188 203 259 391 
Q 375 700 629 1000 
Q 884 1300 1366 1694 
Q 2113 2306 2375 2664 
Q 2638 3022 2638 3341 
Q 2638 3675 2398 3904 
Q 2159 4134 1775 4134 
Q 1369 4134 1125 3890 
Q 881 3647 878 3216 
L 300 3275 
Q 359 3922 746 4261 
Q 1134 4600 1788 4600 
Q 2447 4600 2831 4234 
Q 3216 3869 3216 3328 
Q 3216 3053 3103 2787 
Q 2991 2522 2730 2228 
Q 2469 1934 1863 1422 
Q 1356 997 1212 845 
Q 1069 694 975 541 
L 3222 541 
z
" transform="scale(0.015625)"/>
       </defs>
       <use xlink:href="#ArialMT-30"/>
       <use xlink:href="#ArialMT-2e" transform="translate(55.615234 0)"/>
       <use xlink:href="#ArialMT-32" transform="translate(83.398438 0)"/>
      </g>
     </g>
    </g>
    <g id="xtick_2">
     <g id="line2d_2">
      <path d="M 247.858885 287.277187 
L 247.858885 22.809187 
" clip-path="url(#pe72e78e23b)" style="fill: none; stroke: #cccccc; stroke-linecap: round"/>
     </g>
     <g id="text_2">
      <!-- 0.4 -->
      <g style="fill: #262626" transform="translate(239.449385 305.438141) scale(0.121 -0.121)">
       <defs>
        <path id="ArialMT-34" d="M 2069 0 
L 2069 1097 
L 81 1097 
L 81 1613 
L 2172 4581 
L 2631 4581 
L 2631 1613 
L 3250 1613 
L 3250 1097 
L 2631 1097 
L 2631 0 
L 2069 0 
z
M 2069 1613 
L 2069 3678 
L 634 1613 
L 2069 1613 
z
" transform="scale(0.015625)"/>
       </defs>
       <use xlink:href="#ArialMT-30"/>
       <use xlink:href="#ArialMT-2e" transform="translate(55.615234 0)"/>
       <use xlink:href="#ArialMT-34" transform="translate(83.398438 0)"/>
      </g>
     </g>
    </g>
    <g id="xtick_3">
     <g id="line2d_3">
      <path d="M 341.262521 287.277187 
L 341.262521 22.809187 
" clip-path="url(#pe72e78e23b)" style="fill: none; stroke: #cccccc; stroke-linecap: round"/>
     </g>
     <g id="text_3">
      <!-- 0.6 -->
      <g style="fill: #262626" transform="translate(332.853021 305.438141) scale(0.121 -0.121)">
       <defs>
        <path id="ArialMT-36" d="M 3184 3459 
L 2625 3416 
Q 2550 3747 2413 3897 
Q 2184 4138 1850 4138 
Q 1581 4138 1378 3988 
Q 1113 3794 959 3422 
Q 806 3050 800 2363 
Q 1003 2672 1297 2822 
Q 1591 2972 1913 2972 
Q 2475 2972 2870 2558 
Q 3266 2144 3266 1488 
Q 3266 1056 3080 686 
Q 2894 316 2569 119 
Q 2244 -78 1831 -78 
Q 1128 -78 684 439 
Q 241 956 241 2144 
Q 241 3472 731 4075 
Q 1159 4600 1884 4600 
Q 2425 4600 2770 4297 
Q 3116 3994 3184 3459 
z
M 888 1484 
Q 888 1194 1011 928 
Q 1134 663 1356 523 
Q 1578 384 1822 384 
Q 2178 384 2434 671 
Q 2691 959 2691 1453 
Q 2691 1928 2437 2201 
Q 2184 2475 1800 2475 
Q 1419 2475 1153 2201 
Q 888 1928 888 1484 
z
" transform="scale(0.015625)"/>
       </defs>
       <use xlink:href="#ArialMT-30"/>
       <use xlink:href="#ArialMT-2e" transform="translate(55.615234 0)"/>
       <use xlink:href="#ArialMT-36" transform="translate(83.398438 0)"/>
      </g>
     </g>
    </g>
    <g id="xtick_4">
     <g id="line2d_4">
      <path d="M 434.666158 287.277187 
L 434.666158 22.809187 
" clip-path="url(#pe72e78e23b)" style="fill: none; stroke: #cccccc; stroke-linecap: round"/>
     </g>
     <g id="text_4">
      <!-- 0.8 -->
      <g style="fill: #262626" transform="translate(426.256658 305.438141) scale(0.121 -0.121)">
       <defs>
        <path id="ArialMT-38" d="M 1131 2484 
Q 781 2613 612 2850 
Q 444 3088 444 3419 
Q 444 3919 803 4259 
Q 1163 4600 1759 4600 
Q 2359 4600 2725 4251 
Q 3091 3903 3091 3403 
Q 3091 3084 2923 2848 
Q 2756 2613 2416 2484 
Q 2838 2347 3058 2040 
Q 3278 1734 3278 1309 
Q 3278 722 2862 322 
Q 2447 -78 1769 -78 
Q 1091 -78 675 323 
Q 259 725 259 1325 
Q 259 1772 486 2073 
Q 713 2375 1131 2484 
z
M 1019 3438 
Q 1019 3113 1228 2906 
Q 1438 2700 1772 2700 
Q 2097 2700 2305 2904 
Q 2513 3109 2513 3406 
Q 2513 3716 2298 3927 
Q 2084 4138 1766 4138 
Q 1444 4138 1231 3931 
Q 1019 3725 1019 3438 
z
M 838 1322 
Q 838 1081 952 856 
Q 1066 631 1291 507 
Q 1516 384 1775 384 
Q 2178 384 2440 643 
Q 2703 903 2703 1303 
Q 2703 1709 2433 1975 
Q 2163 2241 1756 2241 
Q 1359 2241 1098 1978 
Q 838 1716 838 1322 
z
" transform="scale(0.015625)"/>
       </defs>
       <use xlink:href="#ArialMT-30"/>
       <use xlink:href="#ArialMT-2e" transform="translate(55.615234 0)"/>
       <use xlink:href="#ArialMT-38" transform="translate(83.398438 0)"/>
      </g>
     </g>
    </g>
    <g id="text_5">
     <!-- Risk threshold (probability) -->
     <g style="fill: #262626" transform="translate(216.435266 321.452203) scale(0.132 -0.132)">
      <defs>
       <path id="ArialMT-52" d="M 503 0 
L 503 4581 
L 2534 4581 
Q 3147 4581 3465 4457 
Q 3784 4334 3975 4021 
Q 4166 3709 4166 3331 
Q 4166 2844 3850 2509 
Q 3534 2175 2875 2084 
Q 3116 1969 3241 1856 
Q 3506 1613 3744 1247 
L 4541 0 
L 3778 0 
L 3172 953 
Q 2906 1366 2734 1584 
Q 2563 1803 2427 1890 
Q 2291 1978 2150 2013 
Q 2047 2034 1813 2034 
L 1109 2034 
L 1109 0 
L 503 0 
z
M 1109 2559 
L 2413 2559 
Q 2828 2559 3062 2645 
Q 3297 2731 3419 2920 
Q 3541 3109 3541 3331 
Q 3541 3656 3305 3865 
Q 3069 4075 2559 4075 
L 1109 4075 
L 1109 2559 
z
" transform="scale(0.015625)"/>
       <path id="ArialMT-69" d="M 425 3934 
L 425 4581 
L 988 4581 
L 988 3934 
L 425 3934 
z
M 425 0 
L 425 3319 
L 988 3319 
L 988 0 
L 425 0 
z
" transform="scale(0.015625)"/>
       <path id="ArialMT-73" d="M 197 991 
L 753 1078 
Q 800 744 1014 566 
Q 1228 388 1613 388 
Q 2000 388 2187 545 
Q 2375 703 2375 916 
Q 2375 1106 2209 1216 
Q 2094 1291 1634 1406 
Q 1016 1563 777 1677 
Q 538 1791 414 1992 
Q 291 2194 291 2438 
Q 291 2659 392 2848 
Q 494 3038 669 3163 
Q 800 3259 1026 3326 
Q 1253 3394 1513 3394 
Q 1903 3394 2198 3281 
Q 2494 3169 2634 2976 
Q 2775 2784 2828 2463 
L 2278 2388 
Q 2241 2644 2061 2787 
Q 1881 2931 1553 2931 
Q 1166 2931 1000 2803 
Q 834 2675 834 2503 
Q 834 2394 903 2306 
Q 972 2216 1119 2156 
Q 1203 2125 1616 2013 
Q 2213 1853 2448 1751 
Q 2684 1650 2818 1456 
Q 2953 1263 2953 975 
Q 2953 694 2789 445 
Q 2625 197 2315 61 
Q 2006 -75 1616 -75 
Q 969 -75 630 194 
Q 291 463 197 991 
z
" transform="scale(0.015625)"/>
       <path id="ArialMT-6b" d="M 425 0 
L 425 4581 
L 988 4581 
L 988 1969 
L 2319 3319 
L 3047 3319 
L 1778 2088 
L 3175 0 
L 2481 0 
L 1384 1697 
L 988 1316 
L 988 0 
L 425 0 
z
" transform="scale(0.015625)"/>
       <path id="ArialMT-20" transform="scale(0.015625)"/>
       <path id="ArialMT-74" d="M 1650 503 
L 1731 6 
Q 1494 -44 1306 -44 
Q 1000 -44 831 53 
Q 663 150 594 308 
Q 525 466 525 972 
L 525 2881 
L 113 2881 
L 113 3319 
L 525 3319 
L 525 4141 
L 1084 4478 
L 1084 3319 
L 1650 3319 
L 1650 2881 
L 1084 2881 
L 1084 941 
Q 1084 700 1114 631 
Q 1144 563 1211 522 
Q 1278 481 1403 481 
Q 1497 481 1650 503 
z
" transform="scale(0.015625)"/>
       <path id="ArialMT-68" d="M 422 0 
L 422 4581 
L 984 4581 
L 984 2938 
Q 1378 3394 1978 3394 
Q 2347 3394 2619 3248 
Q 2891 3103 3008 2847 
Q 3125 2591 3125 2103 
L 3125 0 
L 2563 0 
L 2563 2103 
Q 2563 2525 2380 2717 
Q 2197 2909 1863 2909 
Q 1613 2909 1392 2779 
Q 1172 2650 1078 2428 
Q 984 2206 984 1816 
L 984 0 
L 422 0 
z
" transform="scale(0.015625)"/>
       <path id="ArialMT-72" d="M 416 0 
L 416 3319 
L 922 3319 
L 922 2816 
Q 1116 3169 1280 3281 
Q 1444 3394 1641 3394 
Q 1925 3394 2219 3213 
L 2025 2691 
Q 1819 2813 1613 2813 
Q 1428 2813 1281 2702 
Q 1134 2591 1072 2394 
Q 978 2094 978 1738 
L 978 0 
L 416 0 
z
" transform="scale(0.015625)"/>
       <path id="ArialMT-65" d="M 2694 1069 
L 3275 997 
Q 3138 488 2766 206 
Q 2394 -75 1816 -75 
Q 1088 -75 661 373 
Q 234 822 234 1631 
Q 234 2469 665 2931 
Q 1097 3394 1784 3394 
Q 2450 3394 2872 2941 
Q 3294 2488 3294 1666 
Q 3294 1616 3291 1516 
L 816 1516 
Q 847 969 1125 678 
Q 1403 388 1819 388 
Q 2128 388 2347 550 
Q 2566 713 2694 1069 
z
M 847 1978 
L 2700 1978 
Q 2663 2397 2488 2606 
Q 2219 2931 1791 2931 
Q 1403 2931 1139 2672 
Q 875 2413 847 1978 
z
" transform="scale(0.015625)"/>
       <path id="ArialMT-6f" d="M 213 1659 
Q 213 2581 725 3025 
Q 1153 3394 1769 3394 
Q 2453 3394 2887 2945 
Q 3322 2497 3322 1706 
Q 3322 1066 3130 698 
Q 2938 331 2570 128 
Q 2203 -75 1769 -75 
Q 1072 -75 642 372 
Q 213 819 213 1659 
z
M 791 1659 
Q 791 1022 1069 705 
Q 1347 388 1769 388 
Q 2188 388 2466 706 
Q 2744 1025 2744 1678 
Q 2744 2294 2464 2611 
Q 2184 2928 1769 2928 
Q 1347 2928 1069 2612 
Q 791 2297 791 1659 
z
" transform="scale(0.015625)"/>
       <path id="ArialMT-6c" d="M 409 0 
L 409 4581 
L 972 4581 
L 972 0 
L 409 0 
z
" transform="scale(0.015625)"/>
       <path id="ArialMT-64" d="M 2575 0 
L 2575 419 
Q 2259 -75 1647 -75 
Q 1250 -75 917 144 
Q 584 363 401 755 
Q 219 1147 219 1656 
Q 219 2153 384 2558 
Q 550 2963 881 3178 
Q 1213 3394 1622 3394 
Q 1922 3394 2156 3267 
Q 2391 3141 2538 2938 
L 2538 4581 
L 3097 4581 
L 3097 0 
L 2575 0 
z
M 797 1656 
Q 797 1019 1065 703 
Q 1334 388 1700 388 
Q 2069 388 2326 689 
Q 2584 991 2584 1609 
Q 2584 2291 2321 2609 
Q 2059 2928 1675 2928 
Q 1300 2928 1048 2622 
Q 797 2316 797 1656 
z
" transform="scale(0.015625)"/>
       <path id="ArialMT-28" d="M 1497 -1347 
Q 1031 -759 709 28 
Q 388 816 388 1659 
Q 388 2403 628 3084 
Q 909 3875 1497 4659 
L 1900 4659 
Q 1522 4009 1400 3731 
Q 1209 3300 1100 2831 
Q 966 2247 966 1656 
Q 966 153 1900 -1347 
L 1497 -1347 
z
" transform="scale(0.015625)"/>
       <path id="ArialMT-70" d="M 422 -1272 
L 422 3319 
L 934 3319 
L 934 2888 
Q 1116 3141 1344 3267 
Q 1572 3394 1897 3394 
Q 2322 3394 2647 3175 
Q 2972 2956 3137 2557 
Q 3303 2159 3303 1684 
Q 3303 1175 3120 767 
Q 2938 359 2589 142 
Q 2241 -75 1856 -75 
Q 1575 -75 1351 44 
Q 1128 163 984 344 
L 984 -1272 
L 422 -1272 
z
M 931 1641 
Q 931 1000 1190 694 
Q 1450 388 1819 388 
Q 2194 388 2461 705 
Q 2728 1022 2728 1688 
Q 2728 2322 2467 2637 
Q 2206 2953 1844 2953 
Q 1484 2953 1207 2617 
Q 931 2281 931 1641 
z
" transform="scale(0.015625)"/>
       <path id="ArialMT-62" d="M 941 0 
L 419 0 
L 419 4581 
L 981 4581 
L 981 2947 
Q 1338 3394 1891 3394 
Q 2197 3394 2470 3270 
Q 2744 3147 2920 2923 
Q 3097 2700 3197 2384 
Q 3297 2069 3297 1709 
Q 3297 856 2875 390 
Q 2453 -75 1863 -75 
Q 1275 -75 941 416 
L 941 0 
z
M 934 1684 
Q 934 1088 1097 822 
Q 1363 388 1816 388 
Q 2184 388 2453 708 
Q 2722 1028 2722 1663 
Q 2722 2313 2464 2622 
Q 2206 2931 1841 2931 
Q 1472 2931 1203 2611 
Q 934 2291 934 1684 
z
" transform="scale(0.015625)"/>
       <path id="ArialMT-61" d="M 2588 409 
Q 2275 144 1986 34 
Q 1697 -75 1366 -75 
Q 819 -75 525 192 
Q 231 459 231 875 
Q 231 1119 342 1320 
Q 453 1522 633 1644 
Q 813 1766 1038 1828 
Q 1203 1872 1538 1913 
Q 2219 1994 2541 2106 
Q 2544 2222 2544 2253 
Q 2544 2597 2384 2738 
Q 2169 2928 1744 2928 
Q 1347 2928 1158 2789 
Q 969 2650 878 2297 
L 328 2372 
Q 403 2725 575 2942 
Q 747 3159 1072 3276 
Q 1397 3394 1825 3394 
Q 2250 3394 2515 3294 
Q 2781 3194 2906 3042 
Q 3031 2891 3081 2659 
Q 3109 2516 3109 2141 
L 3109 1391 
Q 3109 606 3145 398 
Q 3181 191 3288 0 
L 2700 0 
Q 2613 175 2588 409 
z
M 2541 1666 
Q 2234 1541 1622 1453 
Q 1275 1403 1131 1340 
Q 988 1278 909 1158 
Q 831 1038 831 891 
Q 831 666 1001 516 
Q 1172 366 1500 366 
Q 1825 366 2078 508 
Q 2331 650 2450 897 
Q 2541 1088 2541 1459 
L 2541 1666 
z
" transform="scale(0.015625)"/>
       <path id="ArialMT-79" d="M 397 -1278 
L 334 -750 
Q 519 -800 656 -800 
Q 844 -800 956 -737 
Q 1069 -675 1141 -563 
Q 1194 -478 1313 -144 
Q 1328 -97 1363 -6 
L 103 3319 
L 709 3319 
L 1400 1397 
Q 1534 1031 1641 628 
Q 1738 1016 1872 1384 
L 2581 3319 
L 3144 3319 
L 1881 -56 
Q 1678 -603 1566 -809 
Q 1416 -1088 1222 -1217 
Q 1028 -1347 759 -1347 
Q 597 -1347 397 -1278 
z
" transform="scale(0.015625)"/>
       <path id="ArialMT-29" d="M 791 -1347 
L 388 -1347 
Q 1322 153 1322 1656 
Q 1322 2244 1188 2822 
Q 1081 3291 891 3722 
Q 769 4003 388 4659 
L 791 4659 
Q 1378 3875 1659 3084 
Q 1900 2403 1900 1659 
Q 1900 816 1576 28 
Q 1253 -759 791 -1347 
z
" transform="scale(0.015625)"/>
      </defs>
      <use xlink:href="#ArialMT-52"/>
      <use xlink:href="#ArialMT-69" transform="translate(72.216797 0)"/>
      <use xlink:href="#ArialMT-73" transform="translate(94.433594 0)"/>
      <use xlink:href="#ArialMT-6b" transform="translate(144.433594 0)"/>
      <use xlink:href="#ArialMT-20" transform="translate(194.433594 0)"/>
      <use xlink:href="#ArialMT-74" transform="translate(222.216797 0)"/>
      <use xlink:href="#ArialMT-68" transform="translate(250 0)"/>
      <use xlink:href="#ArialMT-72" transform="translate(305.615234 0)"/>
      <use xlink:href="#ArialMT-65" transform="translate(338.916016 0)"/>
      <use xlink:href="#ArialMT-73" transform="translate(394.53125 0)"/>
      <use xlink:href="#ArialMT-68" transform="translate(444.53125 0)"/>
      <use xlink:href="#ArialMT-6f" transform="translate(500.146484 0)"/>
      <use xlink:href="#ArialMT-6c" transform="translate(555.761719 0)"/>
      <use xlink:href="#ArialMT-64" transform="translate(577.978516 0)"/>
      <use xlink:href="#ArialMT-20" transform="translate(633.59375 0)"/>
      <use xlink:href="#ArialMT-28" transform="translate(661.376953 0)"/>
      <use xlink:href="#ArialMT-70" transform="translate(694.677734 0)"/>
      <use xlink:href="#ArialMT-72" transform="translate(750.292969 0)"/>
      <use xlink:href="#ArialMT-6f" transform="translate(783.59375 0)"/>
      <use xlink:href="#ArialMT-62" transform="translate(839.208984 0)"/>
      <use xlink:href="#ArialMT-61" transform="translate(894.824219 0)"/>
      <use xlink:href="#ArialMT-62" transform="translate(950.439453 0)"/>
      <use xlink:href="#ArialMT-69" transform="translate(1006.054688 0)"/>
      <use xlink:href="#ArialMT-6c" transform="translate(1028.271484 0)"/>
      <use xlink:href="#ArialMT-69" transform="translate(1050.488281 0)"/>
      <use xlink:href="#ArialMT-74" transform="translate(1072.705078 0)"/>
      <use xlink:href="#ArialMT-79" transform="translate(1100.488281 0)"/>
      <use xlink:href="#ArialMT-29" transform="translate(1150.488281 0)"/>
     </g>
    </g>
   </g>
   <g id="matplotlib.axis_2">
    <g id="ytick_1">
     <g id="line2d_5">
      <path d="M 63.386703 251.471515 
L 525.734703 251.471515 
" clip-path="url(#pe72e78e23b)" style="fill: none; stroke: #cccccc; stroke-linecap: round"/>
     </g>
     <g id="text_6">
      <!-- −15.0 -->
      <g style="fill: #262626" transform="translate(23.271813 255.801991) scale(0.121 -0.121)">
       <defs>
        <path id="ArialMT-2212" d="M 3381 1997 
L 356 1997 
L 356 2522 
L 3381 2522 
L 3381 1997 
z
" transform="scale(0.015625)"/>
        <path id="ArialMT-31" d="M 2384 0 
L 1822 0 
L 1822 3584 
Q 1619 3391 1289 3197 
Q 959 3003 697 2906 
L 697 3450 
Q 1169 3672 1522 3987 
Q 1875 4303 2022 4600 
L 2384 4600 
L 2384 0 
z
" transform="scale(0.015625)"/>
        <path id="ArialMT-35" d="M 266 1200 
L 856 1250 
Q 922 819 1161 601 
Q 1400 384 1738 384 
Q 2144 384 2425 690 
Q 2706 997 2706 1503 
Q 2706 1984 2436 2262 
Q 2166 2541 1728 2541 
Q 1456 2541 1237 2417 
Q 1019 2294 894 2097 
L 366 2166 
L 809 4519 
L 3088 4519 
L 3088 3981 
L 1259 3981 
L 1013 2750 
Q 1425 3038 1878 3038 
Q 2478 3038 2890 2622 
Q 3303 2206 3303 1553 
Q 3303 931 2941 478 
Q 2500 -78 1738 -78 
Q 1113 -78 717 272 
Q 322 622 266 1200 
z
" transform="scale(0.015625)"/>
       </defs>
       <use xlink:href="#ArialMT-2212"/>
       <use xlink:href="#ArialMT-31" transform="translate(58.398438 0)"/>
       <use xlink:href="#ArialMT-35" transform="translate(114.013672 0)"/>
       <use xlink:href="#ArialMT-2e" transform="translate(169.628906 0)"/>
       <use xlink:href="#ArialMT-30" transform="translate(197.412109 0)"/>
      </g>
     </g>
    </g>
    <g id="ytick_2">
     <g id="line2d_6">
      <path d="M 63.386703 215.53439 
L 525.734703 215.53439 
" clip-path="url(#pe72e78e23b)" style="fill: none; stroke: #cccccc; stroke-linecap: round"/>
     </g>
     <g id="text_7">
      <!-- −12.5 -->
      <g style="fill: #262626" transform="translate(23.271813 219.864867) scale(0.121 -0.121)">
       <use xlink:href="#ArialMT-2212"/>
       <use xlink:href="#ArialMT-31" transform="translate(58.398438 0)"/>
       <use xlink:href="#ArialMT-32" transform="translate(114.013672 0)"/>
       <use xlink:href="#ArialMT-2e" transform="translate(169.628906 0)"/>
       <use xlink:href="#ArialMT-35" transform="translate(197.412109 0)"/>
      </g>
     </g>
    </g>
    <g id="ytick_3">
     <g id="line2d_7">
      <path d="M 63.386703 179.597265 
L 525.734703 179.597265 
" clip-path="url(#pe72e78e23b)" style="fill: none; stroke: #cccccc; stroke-linecap: round"/>
     </g>
     <g id="text_8">
      <!-- −10.0 -->
      <g style="fill: #262626" transform="translate(23.271813 183.927742) scale(0.121 -0.121)">
       <use xlink:href="#ArialMT-2212"/>
       <use xlink:href="#ArialMT-31" transform="translate(58.398438 0)"/>
       <use xlink:href="#ArialMT-30" transform="translate(114.013672 0)"/>
       <use xlink:href="#ArialMT-2e" transform="translate(169.628906 0)"/>
       <use xlink:href="#ArialMT-30" transform="translate(197.412109 0)"/>
      </g>
     </g>
    </g>
    <g id="ytick_4">
     <g id="line2d_8">
      <path d="M 63.386703 143.660141 
L 525.734703 143.660141 
" clip-path="url(#pe72e78e23b)" style="fill: none; stroke: #cccccc; stroke-linecap: round"/>
     </g>
     <g id="text_9">
      <!-- −7.5 -->
      <g style="fill: #262626" transform="translate(30.000547 147.990617) scale(0.121 -0.121)">
       <defs>
        <path id="ArialMT-37" d="M 303 3981 
L 303 4522 
L 3269 4522 
L 3269 4084 
Q 2831 3619 2401 2847 
Q 1972 2075 1738 1259 
Q 1569 684 1522 0 
L 944 0 
Q 953 541 1156 1306 
Q 1359 2072 1739 2783 
Q 2119 3494 2547 3981 
L 303 3981 
z
" transform="scale(0.015625)"/>
       </defs>
       <use xlink:href="#ArialMT-2212"/>
       <use xlink:href="#ArialMT-37" transform="translate(58.398438 0)"/>
       <use xlink:href="#ArialMT-2e" transform="translate(114.013672 0)"/>
       <use xlink:href="#ArialMT-35" transform="translate(141.796875 0)"/>
      </g>
     </g>
    </g>
    <g id="ytick_5">
     <g id="line2d_9">
      <path d="M 63.386703 107.723016 
L 525.734703 107.723016 
" clip-path="url(#pe72e78e23b)" style="fill: none; stroke: #cccccc; stroke-linecap: round"/>
     </g>
     <g id="text_10">
      <!-- −5.0 -->
      <g style="fill: #262626" transform="translate(30.000547 112.053492) scale(0.121 -0.121)">
       <use xlink:href="#ArialMT-2212"/>
       <use xlink:href="#ArialMT-35" transform="translate(58.398438 0)"/>
       <use xlink:href="#ArialMT-2e" transform="translate(114.013672 0)"/>
       <use xlink:href="#ArialMT-30" transform="translate(141.796875 0)"/>
      </g>
     </g>
    </g>
    <g id="ytick_6">
     <g id="line2d_10">
      <path d="M 63.386703 71.785891 
L 525.734703 71.785891 
" clip-path="url(#pe72e78e23b)" style="fill: none; stroke: #cccccc; stroke-linecap: round"/>
     </g>
     <g id="text_11">
      <!-- −2.5 -->
      <g style="fill: #262626" transform="translate(30.000547 76.116367) scale(0.121 -0.121)">
       <use xlink:href="#ArialMT-2212"/>
       <use xlink:href="#ArialMT-32" transform="translate(58.398438 0)"/>
       <use xlink:href="#ArialMT-2e" transform="translate(114.013672 0)"/>
       <use xlink:href="#ArialMT-35" transform="translate(141.796875 0)"/>
      </g>
     </g>
    </g>
    <g id="ytick_7">
     <g id="line2d_11">
      <path d="M 63.386703 35.848766 
L 525.734703 35.848766 
" clip-path="url(#pe72e78e23b)" style="fill: none; stroke: #cccccc; stroke-linecap: round"/>
     </g>
     <g id="text_12">
      <!-- 0.0 -->
      <g style="fill: #262626" transform="translate(37.067703 40.179243) scale(0.121 -0.121)">
       <use xlink:href="#ArialMT-30"/>
       <use xlink:href="#ArialMT-2e" transform="translate(55.615234 0)"/>
       <use xlink:href="#ArialMT-30" transform="translate(83.398438 0)"/>
      </g>
     </g>
    </g>
    <g id="text_13">
     <!-- Net benefit -->
     <g style="fill: #262626" transform="translate(16.648313 186.961406) rotate(-90) scale(0.132 -0.132)">
      <defs>
       <path id="ArialMT-4e" d="M 488 0 
L 488 4581 
L 1109 4581 
L 3516 984 
L 3516 4581 
L 4097 4581 
L 4097 0 
L 3475 0 
L 1069 3600 
L 1069 0 
L 488 0 
z
" transform="scale(0.015625)"/>
       <path id="ArialMT-6e" d="M 422 0 
L 422 3319 
L 928 3319 
L 928 2847 
Q 1294 3394 1984 3394 
Q 2284 3394 2536 3286 
Q 2788 3178 2913 3003 
Q 3038 2828 3088 2588 
Q 3119 2431 3119 2041 
L 3119 0 
L 2556 0 
L 2556 2019 
Q 2556 2363 2490 2533 
Q 2425 2703 2258 2804 
Q 2091 2906 1866 2906 
Q 1506 2906 1245 2678 
Q 984 2450 984 1813 
L 984 0 
L 422 0 
z
" transform="scale(0.015625)"/>
       <path id="ArialMT-66" d="M 556 0 
L 556 2881 
L 59 2881 
L 59 3319 
L 556 3319 
L 556 3672 
Q 556 4006 616 4169 
Q 697 4388 901 4523 
Q 1106 4659 1475 4659 
Q 1713 4659 2000 4603 
L 1916 4113 
Q 1741 4144 1584 4144 
Q 1328 4144 1222 4034 
Q 1116 3925 1116 3625 
L 1116 3319 
L 1763 3319 
L 1763 2881 
L 1116 2881 
L 1116 0 
L 556 0 
z
" transform="scale(0.015625)"/>
      </defs>
      <use xlink:href="#ArialMT-4e"/>
      <use xlink:href="#ArialMT-65" transform="translate(72.216797 0)"/>
      <use xlink:href="#ArialMT-74" transform="translate(127.832031 0)"/>
      <use xlink:href="#ArialMT-20" transform="translate(155.615234 0)"/>
      <use xlink:href="#ArialMT-62" transform="translate(183.398438 0)"/>
      <use xlink:href="#ArialMT-65" transform="translate(239.013672 0)"/>
      <use xlink:href="#ArialMT-6e" transform="translate(294.628906 0)"/>
      <use xlink:href="#ArialMT-65" transform="translate(350.244141 0)"/>
      <use xlink:href="#ArialMT-66" transform="translate(405.859375 0)"/>
      <use xlink:href="#ArialMT-69" transform="translate(433.642578 0)"/>
      <use xlink:href="#ArialMT-74" transform="translate(455.859375 0)"/>
     </g>
    </g>
   </g>
   <g id="line2d_12">
    <path d="M 275.879976 38.127083 
L 271.209794 38.408041 
L 280.550158 37.811812 
L 285.220339 37.491488 
L 289.890521 37.166566 
L 294.560703 36.829566 
L 266.539612 38.81689 
L 261.86943 39.256024 
L 257.199249 39.478149 
L 252.529067 39.822097 
L 247.858885 40.155091 
L 299.230885 36.719945 
L 243.188703 40.269652 
L 238.518521 40.392876 
L 233.848339 40.528121 
L 229.178158 40.561683 
L 224.507976 40.529375 
L 303.901067 36.405574 
L 219.837794 40.451142 
L 215.167612 40.277005 
L 210.49743 40.076663 
L 205.827249 39.836376 
L 201.157067 39.594634 
L 84.402521 34.83046 
L 89.072703 34.97247 
L 93.742885 35.117533 
L 98.413067 35.26575 
L 103.083249 35.417224 
L 107.75343 35.572065 
L 112.423612 35.730385 
L 117.093794 35.892303 
L 121.763976 36.057944 
L 126.434158 36.227436 
L 131.104339 36.400917 
L 135.774521 36.578528 
L 140.444703 36.760419 
L 145.114885 36.946746 
L 149.785067 37.137674 
L 154.455249 37.333376 
L 159.12543 37.534031 
L 163.795612 37.739832 
L 168.465794 37.950978 
L 173.135976 38.167681 
L 177.806158 38.390162 
L 182.476339 38.618656 
L 187.146521 38.853411 
L 191.816703 39.094686 
L 196.486885 39.342758 
L 308.571249 36.290909 
L 313.24143 36.147937 
L 317.911612 36.107588 
L 322.581794 35.997837 
L 327.251976 35.962813 
L 331.922158 35.96042 
L 336.592339 35.907263 
" clip-path="url(#pe72e78e23b)" style="fill: none; stroke: #1e88e5; stroke-width: 1.5; stroke-linecap: round"/>
   </g>
   <g id="line2d_13">
    <path d="M 275.879976 44.972249 
L 271.209794 44.545007 
L 280.550158 45.415614 
L 285.220339 45.876031 
L 289.890521 46.354504 
L 294.560703 46.852116 
L 266.539612 44.133023 
L 261.86943 43.735495 
L 257.199249 43.351675 
L 252.529067 42.980865 
L 247.858885 42.622416 
L 299.230885 47.370039 
L 243.188703 42.275719 
L 238.518521 41.940206 
L 233.848339 41.615345 
L 229.178158 41.300635 
L 224.507976 40.995608 
L 303.901067 47.909541 
L 219.837794 40.699825 
L 215.167612 40.412871 
L 210.49743 40.134357 
L 205.827249 39.863916 
L 201.157067 39.601202 
L 84.402521 34.830864 
L 89.072703 34.972959 
L 93.742885 35.11811 
L 98.413067 35.266416 
L 103.083249 35.417982 
L 107.75343 35.572916 
L 112.423612 35.731332 
L 117.093794 35.893348 
L 121.763976 36.059089 
L 126.434158 36.228684 
L 131.104339 36.402269 
L 135.774521 36.579988 
L 140.444703 36.761988 
L 145.114885 36.948428 
L 149.785067 37.139472 
L 154.455249 37.335291 
L 159.12543 37.536068 
L 163.795612 37.741993 
L 168.465794 37.953267 
L 173.135976 38.1701 
L 177.806158 38.392716 
L 182.476339 38.621349 
L 187.146521 38.856245 
L 191.816703 39.097666 
L 196.486885 39.345888 
L 308.571249 48.472001 
L 313.24143 49.058916 
L 317.911612 49.671916 
L 322.581794 50.31278 
L 327.251976 50.983451 
L 331.922158 51.686059 
L 336.592339 52.42294 
L 341.262521 53.196666 
L 345.932703 54.01007 
L 350.602885 54.866284 
L 355.273067 55.768781 
L 359.943249 56.721416 
L 364.61343 57.728487 
L 369.283612 58.794798 
L 373.953794 59.925734 
L 378.623976 61.127353 
L 383.294158 62.406497 
L 387.964339 63.770916 
L 392.634521 65.229433 
L 397.304703 66.79213 
L 401.974885 68.470583 
L 406.645067 70.278147 
L 411.315249 72.230316 
L 415.98543 74.345166 
L 420.655612 76.643916 
L 425.325794 79.151643 
L 429.995976 81.898202 
L 434.666158 84.919416 
L 439.336339 88.258653 
L 444.006521 91.968916 
L 448.676703 96.115681 
L 453.346885 100.780791 
L 458.017067 106.067916 
L 462.687249 112.110344 
L 467.35743 119.082377 
L 472.027612 127.216416 
L 476.697794 136.82937 
L 481.367976 148.364915 
L 486.038158 162.463915 
L 490.708339 180.087665 
L 495.378521 202.746772 
L 500.048703 232.958915 
L 504.718885 275.255915 
" clip-path="url(#pe72e78e23b)" style="fill: none; stroke-dasharray: 5.55,2.4; stroke-dashoffset: 0; stroke: #8e24aa; stroke-width: 1.5"/>
   </g>
   <g id="line2d_14">
    <path d="M 275.879976 35.848766 
L 271.209794 35.848766 
L 280.550158 35.848766 
L 285.220339 35.848766 
L 289.890521 35.848766 
L 294.560703 35.848766 
L 266.539612 35.848766 
L 261.86943 35.848766 
L 257.199249 35.848766 
L 252.529067 35.848766 
L 247.858885 35.848766 
L 299.230885 35.848766 
L 243.188703 35.848766 
L 238.518521 35.848766 
L 233.848339 35.848766 
L 229.178158 35.848766 
L 224.507976 35.848766 
L 303.901067 35.848766 
L 219.837794 35.848766 
L 215.167612 35.848766 
L 210.49743 35.848766 
L 205.827249 35.848766 
L 201.157067 35.848766 
L 84.402521 35.848766 
L 89.072703 35.848766 
L 93.742885 35.848766 
L 98.413067 35.848766 
L 103.083249 35.848766 
L 107.75343 35.848766 
L 112.423612 35.848766 
L 117.093794 35.848766 
L 121.763976 35.848766 
L 126.434158 35.848766 
L 131.104339 35.848766 
L 135.774521 35.848766 
L 140.444703 35.848766 
L 145.114885 35.848766 
L 149.785067 35.848766 
L 154.455249 35.848766 
L 159.12543 35.848766 
L 163.795612 35.848766 
L 168.465794 35.848766 
L 173.135976 35.848766 
L 177.806158 35.848766 
L 182.476339 35.848766 
L 187.146521 35.848766 
L 191.816703 35.848766 
L 196.486885 35.848766 
L 308.571249 35.848766 
L 313.24143 35.848766 
L 317.911612 35.848766 
L 322.581794 35.848766 
L 327.251976 35.848766 
L 331.922158 35.848766 
L 336.592339 35.848766 
L 341.262521 35.848766 
L 345.932703 35.848766 
L 350.602885 35.848766 
L 355.273067 35.848766 
L 359.943249 35.848766 
L 364.61343 35.848766 
L 369.283612 35.848766 
L 373.953794 35.848766 
L 378.623976 35.848766 
L 383.294158 35.848766 
L 387.964339 35.848766 
L 392.634521 35.848766 
L 397.304703 35.848766 
L 401.974885 35.848766 
L 406.645067 35.848766 
L 411.315249 35.848766 
L 415.98543 35.848766 
L 420.655612 35.848766 
L 425.325794 35.848766 
L 429.995976 35.848766 
L 434.666158 35.848766 
L 439.336339 35.848766 
L 444.006521 35.848766 
L 448.676703 35.848766 
L 453.346885 35.848766 
L 458.017067 35.848766 
L 462.687249 35.848766 
L 467.35743 35.848766 
L 472.027612 35.848766 
L 476.697794 35.848766 
L 481.367976 35.848766 
L 486.038158 35.848766 
L 490.708339 35.848766 
L 495.378521 35.848766 
L 500.048703 35.848766 
L 504.718885 35.848766 
" clip-path="url(#pe72e78e23b)" style="fill: none; stroke-dasharray: 1.5,2.475; stroke-dashoffset: 0; stroke: #616161; stroke-width: 1.5"/>
   </g>
   <g id="line2d_15">
    <path d="M 168.465794 287.277187 
L 168.465794 22.809187 
" clip-path="url(#pe72e78e23b)" style="fill: none; stroke-dasharray: 5.55,2.4; stroke-dashoffset: 0; stroke: #000000; stroke-opacity: 0.8; stroke-width: 1.5"/>
   </g>
   <g id="patch_3">
    <path d="M 63.386703 287.277187 
L 63.386703 22.809187 
" style="fill: none; stroke: #cccccc; stroke-width: 1.25; stroke-linejoin: miter; stroke-linecap: square"/>
   </g>
   <g id="patch_4">
    <path d="M 525.734703 287.277187 
L 525.734703 22.809187 
" style="fill: none; stroke: #cccccc; stroke-width: 1.25; stroke-linejoin: miter; stroke-linecap: square"/>
   </g>
   <g id="patch_5">
    <path d="M 63.386703 287.277187 
L 525.734703 287.277187 
" style="fill: none; stroke: #cccccc; stroke-width: 1.25; stroke-linejoin: miter; stroke-linecap: square"/>
   </g>
   <g id="patch_6">
    <path d="M 63.386703 22.809187 
L 525.734703 22.809187 
" style="fill: none; stroke: #cccccc; stroke-width: 1.25; stroke-linejoin: miter; stroke-linecap: square"/>
   </g>
   <g id="text_14">
    <!-- Clinical decision curve analysis -->
    <g style="fill: #262626" transform="translate(203.592078 16.809187) scale(0.132 -0.132)">
     <defs>
      <path id="ArialMT-43" d="M 3763 1606 
L 4369 1453 
Q 4178 706 3683 314 
Q 3188 -78 2472 -78 
Q 1731 -78 1267 223 
Q 803 525 561 1097 
Q 319 1669 319 2325 
Q 319 3041 592 3573 
Q 866 4106 1370 4382 
Q 1875 4659 2481 4659 
Q 3169 4659 3637 4309 
Q 4106 3959 4291 3325 
L 3694 3184 
Q 3534 3684 3231 3912 
Q 2928 4141 2469 4141 
Q 1941 4141 1586 3887 
Q 1231 3634 1087 3207 
Q 944 2781 944 2328 
Q 944 1744 1114 1308 
Q 1284 872 1643 656 
Q 2003 441 2422 441 
Q 2931 441 3284 734 
Q 3638 1028 3763 1606 
z
" transform="scale(0.015625)"/>
      <path id="ArialMT-63" d="M 2588 1216 
L 3141 1144 
Q 3050 572 2676 248 
Q 2303 -75 1759 -75 
Q 1078 -75 664 370 
Q 250 816 250 1647 
Q 250 2184 428 2587 
Q 606 2991 970 3192 
Q 1334 3394 1763 3394 
Q 2303 3394 2647 3120 
Q 2991 2847 3088 2344 
L 2541 2259 
Q 2463 2594 2264 2762 
Q 2066 2931 1784 2931 
Q 1359 2931 1093 2626 
Q 828 2322 828 1663 
Q 828 994 1084 691 
Q 1341 388 1753 388 
Q 2084 388 2306 591 
Q 2528 794 2588 1216 
z
" transform="scale(0.015625)"/>
      <path id="ArialMT-75" d="M 2597 0 
L 2597 488 
Q 2209 -75 1544 -75 
Q 1250 -75 995 37 
Q 741 150 617 320 
Q 494 491 444 738 
Q 409 903 409 1263 
L 409 3319 
L 972 3319 
L 972 1478 
Q 972 1038 1006 884 
Q 1059 663 1231 536 
Q 1403 409 1656 409 
Q 1909 409 2131 539 
Q 2353 669 2445 892 
Q 2538 1116 2538 1541 
L 2538 3319 
L 3100 3319 
L 3100 0 
L 2597 0 
z
" transform="scale(0.015625)"/>
      <path id="ArialMT-76" d="M 1344 0 
L 81 3319 
L 675 3319 
L 1388 1331 
Q 1503 1009 1600 663 
Q 1675 925 1809 1294 
L 2547 3319 
L 3125 3319 
L 1869 0 
L 1344 0 
z
" transform="scale(0.015625)"/>
     </defs>
     <use xlink:href="#ArialMT-43"/>
     <use xlink:href="#ArialMT-6c" transform="translate(72.216797 0)"/>
     <use xlink:href="#ArialMT-69" transform="translate(94.433594 0)"/>
     <use xlink:href="#ArialMT-6e" transform="translate(116.650391 0)"/>
     <use xlink:href="#ArialMT-69" transform="translate(172.265625 0)"/>
     <use xlink:href="#ArialMT-63" transform="translate(194.482422 0)"/>
     <use xlink:href="#ArialMT-61" transform="translate(244.482422 0)"/>
     <use xlink:href="#ArialMT-6c" transform="translate(300.097656 0)"/>
     <use xlink:href="#ArialMT-20" transform="translate(322.314453 0)"/>
     <use xlink:href="#ArialMT-64" transform="translate(350.097656 0)"/>
     <use xlink:href="#ArialMT-65" transform="translate(405.712891 0)"/>
     <use xlink:href="#ArialMT-63" transform="translate(461.328125 0)"/>
     <use xlink:href="#ArialMT-69" transform="translate(511.328125 0)"/>
     <use xlink:href="#ArialMT-73" transform="translate(533.544922 0)"/>
     <use xlink:href="#ArialMT-69" transform="translate(583.544922 0)"/>
     <use xlink:href="#ArialMT-6f" transform="translate(605.761719 0)"/>
     <use xlink:href="#ArialMT-6e" transform="translate(661.376953 0)"/>
     <use xlink:href="#ArialMT-20" transform="translate(716.992188 0)"/>
     <use xlink:href="#ArialMT-63" transform="translate(744.775391 0)"/>
     <use xlink:href="#ArialMT-75" transform="translate(794.775391 0)"/>
     <use xlink:href="#ArialMT-72" transform="translate(850.390625 0)"/>
     <use xlink:href="#ArialMT-76" transform="translate(883.691406 0)"/>
     <use xlink:href="#ArialMT-65" transform="translate(933.691406 0)"/>
     <use xlink:href="#ArialMT-20" transform="translate(989.306641 0)"/>
     <use xlink:href="#ArialMT-61" transform="translate(1017.089844 0)"/>
     <use xlink:href="#ArialMT-6e" transform="translate(1072.705078 0)"/>
     <use xlink:href="#ArialMT-61" transform="translate(1128.320312 0)"/>
     <use xlink:href="#ArialMT-6c" transform="translate(1183.935547 0)"/>
     <use xlink:href="#ArialMT-79" transform="translate(1206.152344 0)"/>
     <use xlink:href="#ArialMT-73" transform="translate(1256.152344 0)"/>
     <use xlink:href="#ArialMT-69" transform="translate(1306.152344 0)"/>
     <use xlink:href="#ArialMT-73" transform="translate(1328.369141 0)"/>
    </g>
   </g>
   <g id="legend_1">
    <g id="patch_7">
     <path d="M 209.112961 281.227187 
L 380.008445 281.227187 
Q 382.428445 281.227187 382.428445 278.807187 
L 382.428445 211.553875 
Q 382.428445 209.133875 380.008445 209.133875 
L 209.112961 209.133875 
Q 206.692961 209.133875 206.692961 211.553875 
L 206.692961 278.807187 
Q 206.692961 281.227187 209.112961 281.227187 
z
" style="fill: #ffffff; opacity: 0.8; stroke: #cccccc; stroke-linejoin: miter"/>
    </g>
    <g id="line2d_16">
     <path d="M 211.532961 218.399828 
L 223.632961 218.399828 
L 235.732961 218.399828 
" style="fill: none; stroke: #1e88e5; stroke-width: 1.5; stroke-linecap: round"/>
    </g>
    <g id="text_15">
     <!-- Model -->
     <g style="fill: #262626" transform="translate(245.412961 222.634828) scale(0.121 -0.121)">
      <defs>
       <path id="ArialMT-4d" d="M 475 0 
L 475 4581 
L 1388 4581 
L 2472 1338 
Q 2622 884 2691 659 
Q 2769 909 2934 1394 
L 4031 4581 
L 4847 4581 
L 4847 0 
L 4263 0 
L 4263 3834 
L 2931 0 
L 2384 0 
L 1059 3900 
L 1059 0 
L 475 0 
z
" transform="scale(0.015625)"/>
      </defs>
      <use xlink:href="#ArialMT-4d"/>
      <use xlink:href="#ArialMT-6f" transform="translate(83.300781 0)"/>
      <use xlink:href="#ArialMT-64" transform="translate(138.916016 0)"/>
      <use xlink:href="#ArialMT-65" transform="translate(194.53125 0)"/>
      <use xlink:href="#ArialMT-6c" transform="translate(250.146484 0)"/>
     </g>
    </g>
    <g id="line2d_17">
     <path d="M 211.532961 235.515656 
L 223.632961 235.515656 
L 235.732961 235.515656 
" style="fill: none; stroke-dasharray: 5.55,2.4; stroke-dashoffset: 0; stroke: #8e24aa; stroke-width: 1.5"/>
    </g>
    <g id="text_16">
     <!-- Treat-all -->
     <g style="fill: #262626" transform="translate(245.412961 239.750656) scale(0.121 -0.121)">
      <defs>
       <path id="ArialMT-54" d="M 1659 0 
L 1659 4041 
L 150 4041 
L 150 4581 
L 3781 4581 
L 3781 4041 
L 2266 4041 
L 2266 0 
L 1659 0 
z
" transform="scale(0.015625)"/>
       <path id="ArialMT-2d" d="M 203 1375 
L 203 1941 
L 1931 1941 
L 1931 1375 
L 203 1375 
z
" transform="scale(0.015625)"/>
      </defs>
      <use xlink:href="#ArialMT-54"/>
      <use xlink:href="#ArialMT-72" transform="translate(57.333984 0)"/>
      <use xlink:href="#ArialMT-65" transform="translate(90.634766 0)"/>
      <use xlink:href="#ArialMT-61" transform="translate(146.25 0)"/>
      <use xlink:href="#ArialMT-74" transform="translate(201.865234 0)"/>
      <use xlink:href="#ArialMT-2d" transform="translate(229.648438 0)"/>
      <use xlink:href="#ArialMT-61" transform="translate(262.949219 0)"/>
      <use xlink:href="#ArialMT-6c" transform="translate(318.564453 0)"/>
      <use xlink:href="#ArialMT-6c" transform="translate(340.78125 0)"/>
     </g>
    </g>
    <g id="line2d_18">
     <path d="M 211.532961 252.631484 
L 223.632961 252.631484 
L 235.732961 252.631484 
" style="fill: none; stroke-dasharray: 1.5,2.475; stroke-dashoffset: 0; stroke: #616161; stroke-width: 1.5"/>
    </g>
    <g id="text_17">
     <!-- Treat-none -->
     <g style="fill: #262626" transform="translate(245.412961 256.866484) scale(0.121 -0.121)">
      <use xlink:href="#ArialMT-54"/>
      <use xlink:href="#ArialMT-72" transform="translate(57.333984 0)"/>
      <use xlink:href="#ArialMT-65" transform="translate(90.634766 0)"/>
      <use xlink:href="#ArialMT-61" transform="translate(146.25 0)"/>
      <use xlink:href="#ArialMT-74" transform="translate(201.865234 0)"/>
      <use xlink:href="#ArialMT-2d" transform="translate(229.648438 0)"/>
      <use xlink:href="#ArialMT-6e" transform="translate(262.949219 0)"/>
      <use xlink:href="#ArialMT-6f" transform="translate(318.564453 0)"/>
      <use xlink:href="#ArialMT-6e" transform="translate(374.179688 0)"/>
      <use xlink:href="#ArialMT-65" transform="translate(429.794922 0)"/>
     </g>
    </g>
    <g id="line2d_19">
     <path d="M 211.532961 269.747312 
L 223.632961 269.747312 
L 235.732961 269.747312 
" style="fill: none; stroke-dasharray: 5.55,2.4; stroke-dashoffset: 0; stroke: #000000; stroke-opacity: 0.8; stroke-width: 1.5"/>
    </g>
    <g id="text_18">
     <!-- Chosen threshold = 0.23 -->
     <g style="fill: #262626" transform="translate(245.412961 273.982312) scale(0.121 -0.121)">
      <defs>
       <path id="ArialMT-3d" d="M 3381 2694 
L 356 2694 
L 356 3219 
L 3381 3219 
L 3381 2694 
z
M 3381 1303 
L 356 1303 
L 356 1828 
L 3381 1828 
L 3381 1303 
z
" transform="scale(0.015625)"/>
       <path id="ArialMT-33" d="M 269 1209 
L 831 1284 
Q 928 806 1161 595 
Q 1394 384 1728 384 
Q 2125 384 2398 659 
Q 2672 934 2672 1341 
Q 2672 1728 2419 1979 
Q 2166 2231 1775 2231 
Q 1616 2231 1378 2169 
L 1441 2663 
Q 1497 2656 1531 2656 
Q 1891 2656 2178 2843 
Q 2466 3031 2466 3422 
Q 2466 3731 2256 3934 
Q 2047 4138 1716 4138 
Q 1388 4138 1169 3931 
Q 950 3725 888 3313 
L 325 3413 
Q 428 3978 793 4289 
Q 1159 4600 1703 4600 
Q 2078 4600 2393 4439 
Q 2709 4278 2876 4000 
Q 3044 3722 3044 3409 
Q 3044 3113 2884 2869 
Q 2725 2625 2413 2481 
Q 2819 2388 3044 2092 
Q 3269 1797 3269 1353 
Q 3269 753 2831 336 
Q 2394 -81 1725 -81 
Q 1122 -81 723 278 
Q 325 638 269 1209 
z
" transform="scale(0.015625)"/>
      </defs>
      <use xlink:href="#ArialMT-43"/>
      <use xlink:href="#ArialMT-68" transform="translate(72.216797 0)"/>
      <use xlink:href="#ArialMT-6f" transform="translate(127.832031 0)"/>
      <use xlink:href="#ArialMT-73" transform="translate(183.447266 0)"/>
      <use xlink:href="#ArialMT-65" transform="translate(233.447266 0)"/>
      <use xlink:href="#ArialMT-6e" transform="translate(289.0625 0)"/>
      <use xlink:href="#ArialMT-20" transform="translate(344.677734 0)"/>
      <use xlink:href="#ArialMT-74" transform="translate(372.460938 0)"/>
      <use xlink:href="#ArialMT-68" transform="translate(400.244141 0)"/>
      <use xlink:href="#ArialMT-72" transform="translate(455.859375 0)"/>
      <use xlink:href="#ArialMT-65" transform="translate(489.160156 0)"/>
      <use xlink:href="#ArialMT-73" transform="translate(544.775391 0)"/>
      <use xlink:href="#ArialMT-68" transform="translate(594.775391 0)"/>
      <use xlink:href="#ArialMT-6f" transform="translate(650.390625 0)"/>
      <use xlink:href="#ArialMT-6c" transform="translate(706.005859 0)"/>
      <use xlink:href="#ArialMT-64" transform="translate(728.222656 0)"/>
      <use xlink:href="#ArialMT-20" transform="translate(783.837891 0)"/>
      <use xlink:href="#ArialMT-3d" transform="translate(811.621094 0)"/>
      <use xlink:href="#ArialMT-20" transform="translate(870.019531 0)"/>
      <use xlink:href="#ArialMT-30" transform="translate(897.802734 0)"/>
      <use xlink:href="#ArialMT-2e" transform="translate(953.417969 0)"/>
      <use xlink:href="#ArialMT-32" transform="translate(981.201172 0)"/>
      <use xlink:href="#ArialMT-33" transform="translate(1036.816406 0)"/>
     </g>
    </g>
   </g>
  </g>
 </g>
 <defs>
  <clipPath id="pe72e78e23b">
   <rect x="63.386703" y="22.809187" width="462.348" height="264.468"/>
  </clipPath>
 </defs>
</svg>
